<mxfile host="app.diagrams.net" modified="2024-05-26T00:21:55.860Z" agent="Mozilla/5.0 (Windows NT 10.0; Win64; x64) AppleWebKit/537.36 (KHTML, like Gecko) Chrome/125.0.0.0 Safari/537.36" version="24.4.8" etag="Nz03VRzXIMDS9tAOadgg" type="github">
  <diagram name="Page-1" id="aui_4dzJ4U3y1_xPwKv-">
    <mxGraphModel>
      <root>
        <mxCell id="0" />
        <mxCell id="1" parent="0" />
      </root>
    </mxGraphModel>
  </diagram>
</mxfile>
